<svg xmlns="http://www.w3.org/2000/svg" viewBox="0 0 95.45 97.38"><defs><style>.cls-1{fill:#4285f4;}.cls-2{fill:#34a853;}.cls-3{fill:#fbbc04;}.cls-4{fill:#ea4335;}</style></defs><title>Asset 4mdpi</title><g id="Layer_2" data-name="Layer 2"><g id="layer"><g id="Google_G_Logo" data-name="Google  G  Logo"><path id="Path_3" data-name="Path 3" class="cls-1" d="M95.42,49.81a56.44,56.44,0,0,0-.84-9.89H48.67V58.66H75a22.51,22.51,0,0,1-9.73,14.79V85.62H80.92A47.58,47.58,0,0,0,95.42,49.81Z"/><path id="Path_4" data-name="Path 4" class="cls-2" d="M48.67,97.36A46.58,46.58,0,0,0,80.94,85.62L65.27,73.45a29.51,29.51,0,0,1-40.78-8.92A29.13,29.13,0,0,1,21.36,58H5.18V70.56A48.66,48.66,0,0,0,48.67,97.36Z"/><path id="Path_5" data-name="Path 5" class="cls-3" d="M21.34,58a29.15,29.15,0,0,1,0-18.64V26.85H5.18a48.67,48.67,0,0,0,0,43.71Z"/><path id="Path_6" data-name="Path 6" class="cls-4" d="M48.67,19.28a26.44,26.44,0,0,1,18.67,7.3l13.9-13.9A46.76,46.76,0,0,0,48.67,0,48.64,48.64,0,0,0,5.18,26.85L21.35,39.38A29.11,29.11,0,0,1,48.67,19.28Z"/></g></g></g></svg>